# xmcd
#
# Track frame offsets:
#	150
#	22917
#	36112
#	51282
#	71006
#	88687
#	103976
#	115960
#	138022
#	158435
#	176734
#	194871
#
# Disc length: 2789 seconds
# Revision: 0
# Processed by: cddbd v1.5.2PL0 Copyright (c) Steve Scherf et al.
# Submitted via: dBpowerAMP V12.0
#
DISCID=a40ae30c
DTITLE=Jazzy Jeff Baldori - No Genre
DYEAR=2013
DGENRE=Blues
TTITLE0=Black Coffee
TTITLE1=She Laughed
TTITLE2=My Message
TTITLE3=You And Me
TTITLE4=Kansas City Boogie
TTITLE5=Heartbeat
TTITLE6=The Answer
TTITLE7=Disapearing Train
TTITLE8=Highway
TTITLE9=2 Husbands Later
TTITLE10=Beautiful Woman
TTITLE11=Me And My Amigos
EXTD=
EXTT0=
EXTT1=
EXTT2=
EXTT3=
EXTT4=
EXTT5=
EXTT6=
EXTT7=
EXTT8=
EXTT9=
EXTT10=
EXTT11=
PLAYORDER=
